<?xml version="1.0" encoding="UTF-8" standalone="no"?><!DOCTYPE svg PUBLIC "-//W3C//DTD SVG 1.1//EN" "http://www.w3.org/Graphics/SVG/1.1/DTD/svg11.dtd"><svg width="100%" height="100%" viewBox="0 0 5 5" version="1.1" xmlns="http://www.w3.org/2000/svg" xmlns:xlink="http://www.w3.org/1999/xlink" xml:space="preserve" xmlns:serif="http://www.serif.com/" style="fill-rule:evenodd;clip-rule:evenodd;stroke-linejoin:round;stroke-miterlimit:2;"><rect id="Plan-de-travail1" serif:id="Plan de travail1" x="0" y="0" width="4.031" height="4.049" style="fill:none;"/><g><path d="M1.676,0.168c-0.058,0.01 -0.101,0.031 -0.143,0.069c-0.032,0.03 -0.055,0.069 -0.069,0.119l-0.008,0.025l0,0.24l-0.001,0.239l-0.262,0l-0.262,0l0,1.523l0,1.522l2.15,0l0,-3.045l-0.264,0l-0.265,0l-0.002,-0.239c-0.001,-0.217 -0.001,-0.242 -0.006,-0.261c-0.024,-0.092 -0.084,-0.155 -0.177,-0.185l-0.03,-0.009l-0.322,-0.001c-0.176,0 -0.329,0.001 -0.339,0.003Z" style="fill-rule:nonzero;"/><path d="M0.406,0.858c-0.13,0.017 -0.25,0.116 -0.31,0.256c-0.014,0.03 -0.028,0.079 -0.035,0.118c-0.005,0.028 -0.005,0.082 -0.005,1.146c0,1.075 0,1.117 0.005,1.151c0.031,0.193 0.152,0.33 0.319,0.364c0.028,0.006 0.051,0.007 0.193,0.007l0.162,0l0,-3.045l-0.153,0c-0.083,-0.001 -0.163,0.001 -0.176,0.003Z" style="fill-rule:nonzero;"/><path d="M3.272,0.856c-0.001,0.002 -0.002,0.688 -0.001,1.524l0.001,1.52l0.161,0c0.142,0 0.165,-0.001 0.193,-0.006c0.124,-0.025 0.226,-0.11 0.28,-0.233c0.018,-0.039 0.031,-0.084 0.039,-0.129c0.005,-0.03 0.006,-0.09 0.006,-1.149c0,-1.226 0.001,-1.137 -0.019,-1.207c-0.047,-0.164 -0.163,-0.282 -0.311,-0.316c-0.023,-0.005 -0.346,-0.009 -0.349,-0.004Z" style="fill-rule:nonzero;"/></g></svg>