<?xml version="1.0" encoding="UTF-8" standalone="no"?><!DOCTYPE svg PUBLIC "-//W3C//DTD SVG 1.1//EN" "http://www.w3.org/Graphics/SVG/1.1/DTD/svg11.dtd"><svg width="100%" height="100%" viewBox="0 0 19 19" version="1.1" xmlns="http://www.w3.org/2000/svg" xmlns:xlink="http://www.w3.org/1999/xlink" xml:space="preserve" xmlns:serif="http://www.serif.com/" style="fill-rule:evenodd;clip-rule:evenodd;stroke-linejoin:round;stroke-miterlimit:2;"><ellipse cx="8.982" cy="11.39" rx="17.494" ry="18.268" style="fill:#5353a2;"/><path d="M18.575,10.742c-0.196,0.199 -0.392,0.392 -0.587,0.581c-0.705,0.68 -1.372,1.229 -2,1.648c-0.41,0.28 -0.835,0.493 -1.278,0.642c-0.442,0.148 -0.855,0.174 -1.239,0.078c-0.386,-0.096 -0.728,-0.332 -1.029,-0.706c-0.302,-0.375 -0.516,-0.947 -0.644,-1.715c-0.102,-0.575 -0.144,-1.195 -0.125,-1.857c0.019,-0.663 0.074,-1.331 0.163,-2.002c0.09,-0.672 0.202,-1.331 0.336,-1.976c0.135,-0.645 0.267,-1.238 0.395,-1.779c0.154,-0.593 0.231,-1.098 0.231,-1.517c0.025,-0.576 -0.074,-0.93 -0.298,-1.06c-0.225,-0.131 -0.51,-0.048 -0.856,0.248c-0.231,0.209 -0.484,0.511 -0.759,0.903c-0.275,0.393 -0.555,0.828 -0.836,1.308c-0.282,0.48 -0.568,0.99 -0.856,1.531c-0.288,0.541 -0.567,1.073 -0.836,1.596c-0.409,0.785 -0.785,1.491 -1.124,2.12c-0.34,0.628 -0.638,1.038 -0.894,1.229c-0.218,0.193 -0.401,0.211 -0.548,0.052c-0.147,-0.157 -0.234,-0.392 -0.259,-0.706c-0.026,-0.261 -0.02,-0.554 0.019,-0.876c0.038,-0.323 0.077,-0.589 0.115,-0.799c0.128,-0.732 0.214,-1.399 0.259,-2.001c0.045,-0.602 0.035,-1.086 -0.029,-1.452c-0.025,-0.174 -0.064,-0.31 -0.115,-0.405c-0.051,-0.097 -0.147,-0.092 -0.288,0.012c-0.166,0.14 -0.369,0.401 -0.606,0.786c-0.236,0.383 -0.521,0.941 -0.855,1.674c-0.115,0.245 -0.246,0.554 -0.394,0.929c-0.147,0.375 -0.301,0.755 -0.461,1.138c-0.16,0.384 -0.324,0.738 -0.49,1.06c-0.166,0.322 -0.321,0.545 -0.462,0.667c-0.115,0.105 -0.217,0.148 -0.307,0.132c-0.09,-0.018 -0.17,-0.076 -0.24,-0.171c-0.07,-0.096 -0.132,-0.214 -0.184,-0.353c-0.051,-0.14 -0.083,-0.288 -0.096,-0.445c-0.051,-0.401 -0.048,-0.802 0.01,-1.204c0.058,-0.401 0.118,-0.802 0.184,-1.203c0.025,-0.175 0.07,-0.419 0.134,-0.733c0.064,-0.314 0.128,-0.632 0.192,-0.955c0.064,-0.323 0.122,-0.624 0.173,-0.903c0.051,-0.279 0.077,-0.471 0.077,-0.576c0.038,-0.157 0.102,-0.266 0.192,-0.326c0.089,-0.062 0.186,-0.049 0.289,0.038c0.102,0.088 0.208,0.24 0.316,0.458c0.109,0.219 0.151,0.397 0.125,0.537c-0.179,0.837 -0.329,1.675 -0.451,2.512c-0.122,0.838 -0.254,1.683 -0.395,2.538c0.27,-0.454 0.52,-0.999 0.75,-1.635c0.231,-0.637 0.468,-1.217 0.712,-1.74c0.345,-0.786 0.653,-1.387 0.922,-1.806c0.269,-0.419 0.506,-0.707 0.712,-0.864c0.217,-0.174 0.444,-0.266 0.681,-0.274c0.238,-0.009 0.459,0.1 0.664,0.326c0.256,0.298 0.41,0.677 0.462,1.139c0.051,0.462 0.044,0.903 -0.02,1.322c-0.089,0.592 -0.202,1.186 -0.337,1.778c-0.134,0.594 -0.272,1.17 -0.413,1.728c0.18,-0.244 0.413,-0.637 0.702,-1.178c0.288,-0.541 0.605,-1.151 0.952,-1.832c0.281,-0.54 0.573,-1.094 0.874,-1.661c0.301,-0.567 0.602,-1.103 0.904,-1.61c0.301,-0.505 0.598,-0.964 0.894,-1.373c0.294,-0.41 0.576,-0.719 0.845,-0.929c0.192,-0.175 0.416,-0.288 0.672,-0.341c0.258,-0.052 0.494,-0.034 0.712,0.053c0.256,0.104 0.449,0.279 0.577,0.523c0.128,0.245 0.211,0.52 0.25,0.825c0.038,0.305 0.044,0.623 0.019,0.955c-0.026,0.332 -0.071,0.637 -0.135,0.915c-0.449,1.955 -0.74,3.564 -0.874,4.829c-0.135,1.264 -0.144,2.263 -0.029,2.995c0.09,0.594 0.246,1.013 0.47,1.257c0.225,0.244 0.485,0.37 0.779,0.379c0.295,0.009 0.606,-0.065 0.932,-0.222c0.328,-0.157 0.638,-0.332 0.932,-0.524c0.616,-0.401 1.27,-0.937 1.961,-1.608c0.079,-0.077 0.157,-0.153 0.234,-0.231l0,0.107l0.527,0Z" style="fill:#fff;fill-rule:nonzero;stroke:#fff;stroke-width:0.65px;"/><g><g><path d="M5.258,11.378l-1.559,6.924l-1.682,0l1.021,-4.537c-0.325,0.235 -0.632,0.426 -0.919,0.571c-0.287,0.146 -0.638,0.285 -1.052,0.418l0.349,-1.551c0.613,-0.208 1.109,-0.457 1.488,-0.748c0.378,-0.291 0.704,-0.65 0.977,-1.077l1.377,0Z" style="fill:#ff9d11;fill-rule:nonzero;"/><path d="M5.183,15.467l1.262,-0.132c0.014,0.166 0.058,0.286 0.133,0.357c0.076,0.072 0.19,0.108 0.342,0.108c0.167,0 0.305,-0.041 0.415,-0.122c0.085,-0.06 0.137,-0.135 0.158,-0.225c0.023,-0.102 -0.006,-0.181 -0.088,-0.236c-0.058,-0.039 -0.225,-0.088 -0.501,-0.146c-0.412,-0.085 -0.693,-0.165 -0.845,-0.238c-0.151,-0.072 -0.265,-0.196 -0.341,-0.369c-0.076,-0.174 -0.089,-0.371 -0.039,-0.594c0.055,-0.242 0.164,-0.452 0.328,-0.628c0.163,-0.175 0.364,-0.307 0.601,-0.393c0.237,-0.087 0.539,-0.131 0.905,-0.131c0.387,0 0.664,0.034 0.833,0.101c0.169,0.067 0.3,0.171 0.391,0.312c0.091,0.141 0.15,0.332 0.178,0.573l-1.208,0.132c-0.004,-0.118 -0.035,-0.205 -0.094,-0.26c-0.081,-0.074 -0.191,-0.111 -0.329,-0.111c-0.14,0 -0.249,0.028 -0.326,0.085c-0.076,0.056 -0.124,0.125 -0.142,0.206c-0.021,0.09 0.005,0.158 0.076,0.205c0.071,0.046 0.238,0.088 0.503,0.125c0.401,0.053 0.691,0.127 0.871,0.222c0.18,0.095 0.304,0.23 0.371,0.406c0.067,0.176 0.077,0.369 0.03,0.579c-0.048,0.213 -0.151,0.42 -0.309,0.621c-0.159,0.202 -0.373,0.362 -0.642,0.481c-0.27,0.119 -0.615,0.179 -1.034,0.179c-0.592,0 -0.992,-0.096 -1.2,-0.288c-0.208,-0.192 -0.308,-0.465 -0.299,-0.819Z" style="fill:#ff9d11;fill-rule:nonzero;"/><path d="M11.034,11.4l-0.316,1.402l0.684,0l-0.232,1.03l-0.684,0l-0.294,1.309c-0.036,0.157 -0.046,0.261 -0.031,0.312c0.023,0.078 0.086,0.118 0.187,0.118c0.092,0 0.227,-0.03 0.405,-0.09l-0.128,0.975c-0.324,0.076 -0.62,0.114 -0.886,0.114c-0.309,0 -0.527,-0.045 -0.653,-0.135c-0.126,-0.09 -0.204,-0.227 -0.233,-0.411c-0.028,-0.184 0.004,-0.482 0.096,-0.894l0.292,-1.298l-0.457,0l0.231,-1.03l0.458,0l0.152,-0.677l1.409,-0.725Z" style="fill:#ff9d11;fill-rule:nonzero;"/></g></g></svg>