<?xml version="1.0" encoding="UTF-8" standalone="no"?><!DOCTYPE svg PUBLIC "-//W3C//DTD SVG 1.1//EN" "http://www.w3.org/Graphics/SVG/1.1/DTD/svg11.dtd"><svg width="100%" height="100%" viewBox="0 0 7 4" version="1.1" xmlns="http://www.w3.org/2000/svg" xmlns:xlink="http://www.w3.org/1999/xlink" xml:space="preserve" xmlns:serif="http://www.serif.com/" style="fill-rule:evenodd;clip-rule:evenodd;stroke-linejoin:round;stroke-miterlimit:2;"><path d="M5.981,0.125c0.516,0 0.935,0.419 0.935,0.935l0,1.869c0,0.516 -0.419,0.935 -0.935,0.935l-4.97,0c-0.516,0 -0.934,-0.419 -0.934,-0.935l0,-1.869c0,-0.516 0.418,-0.935 0.934,-0.935l4.97,0Zm-1.597,0.815l0,-0.305l-1.655,0l0,0.305l0.552,0l0,2.439l0.551,0l0,-2.439l0.552,0Zm1.102,2.134c0.076,0 0.141,-0.02 0.195,-0.06c0.054,-0.04 0.081,-0.088 0.081,-0.143l0,-0.356l0.551,0.051l0,0.203c0,0.168 -0.08,0.312 -0.242,0.431c-0.162,0.119 -0.357,0.179 -0.585,0.179c-0.228,0 -0.422,-0.06 -0.584,-0.179c-0.162,-0.119 -0.243,-0.263 -0.243,-0.431l0,-1.524c0,-0.168 0.081,-0.312 0.243,-0.431c0.162,-0.119 0.356,-0.179 0.584,-0.179c0.228,0 0.423,0.06 0.585,0.179c0.162,0.119 0.242,0.263 0.242,0.431l0,0.203l-0.551,0.051l0,-0.356c0,-0.055 -0.027,-0.103 -0.081,-0.143c-0.054,-0.04 -0.119,-0.06 -0.195,-0.06c-0.075,0 -0.14,0.02 -0.194,0.06c-0.054,0.04 -0.081,0.088 -0.081,0.143l0,1.728c0,0.055 0.027,0.103 0.081,0.143c0.054,0.04 0.119,0.06 0.194,0.06Zm-3.515,0.305l0.621,-2.744l-0.524,0l-0.441,1.951l-0.441,-1.951l-0.524,0l0.62,2.744l0.689,0Z"/></svg>